{"title":"Crars 2 2011 Dual English.Castellano.DvdRip.XVID","uid":6745209,"size":944490376,"categoryP":"video","categoryS":"movies","magnet":"?xt=urn:btih:0e9e257a3e0b05de18c37fcd3e1b5f38ce500294&amp;dn=Crars+2+2011+Dual+English.Castellano.DvdRip.XVID&amp;tr=udp%3A%2F%2Ftracker.openbittorrent.com%3A80&amp;tr=udp%3A%2F%2Fopen.demonii.com%3A1337&amp;tr=udp%3A%2F%2Ftracker.coppersurfer.tk%3A6969&amp;tr=udp%3A%2F%2Fexodus.desync.com%3A6969","seeders":0,"leechers":0,"uploader":"DJREYLY","files":-1,"time":1318661007,"description":"Aqui Les Dejo Una Primisia De La Pelicula Yo Se Que Se Van A preguntar Oh No Es Latino Pero Crean Que No Es Fasil Conseguir Esto Pero Algo Si Les Prometo Pronto Les Traigo Un Buen DvdRip Latino Y Como Siempre No Te Olvides De Comentar Ah No Te Olvides De Chekar Mis Otras Torrents QueTengo Muy Buen Material Saludos..........................................................................................................................................................................................................................................................................................................................................................................................General\nComplete name : F:\\Crars 2 2011 Dual English.Castellano.DvdRip.XVID\\Crars 2 2011 Dual English.Castellano.DvdRip.XVID.avi\nFormat : AVI\nFormat/Info : Audio Video Interleave\nFile size : 901 MiB\nDuration : 1h 47mn\nOverall bit rate : 1 177 Kbps\n\nVideo\nID : 0\nFormat : MPEG-4 Visual\nFormat profile : Advanced Simple@L5\nFormat settings, BVOP : 2\nFormat settings, QPel : No\nFormat settings, GMC : No warppoints\nFormat settings, Matrix : Default (H.263)\nCodec ID : XVID\nCodec ID/Hint : XviD\nDuration : 1h 47mn\nBit rate : 700 Kbps\nWidth : 720 pixels\nHeight : 304 pixels\nDisplay aspect ratio : 2.35:1\nFrame rate : 23.976 fps\nColor space : YUV\nChroma subsampling : 4:2:0\nBit depth : 8 bits\nScan type : Progressive\nCompression mode : Lossy\nBits/(Pixel*Frame) : 0.133\nStream size : 536 MiB (59%)\nWriting library : XviD 1.2.1 (UTC 2008-12-04)\n\nAudio #1\nID : 1\nFormat : AAC\nFormat/Info : Advanced Audio Codec\nFormat profile : LC\nCodec ID : FF\nDuration : 1h 47mn\nBit rate : 328 Kbps\nChannel(s) : 6 channels\nChannel positions : Front: L C R, Side: L R, LFE\nSampling rate : 48.0 KHz\nCompression mode : Lossy\nStream size : 251 MiB (28%)\nAlignment : Split accross interleaves\nInterleave, duration : 21 ms (0.51 video frame)\nInterleave, preload duration : 118 ms\nTitle : 80Cars2.LINE.t713 - [3] English_audio\n\nAudio #2\nID : 2\nFormat : AAC\nFormat/Info : Advanced Audio Codec\nFormat profile : LC\nCodec ID : FF\nDuration : 1h 47mn\nBit rate : 126 Kbps\nChannel(s) : 2 channels\nChannel positions : Front: L R\nSampling rate : 44.1 KHz\nCompression mode : Lossy\nStream size : 96.7 MiB (11%)\nAlignment : Split accross interleaves\nInterleave, duration : 23 ms (0.56 video frame)\nInterleave, preload duration : 110 ms\nTitle : 80Cars2.LINE.t713 - [2] _audio","torrent":{"xt":"urn:btih:0e9e257a3e0b05de18c37fcd3e1b5f38ce500294","amp;dn":"Crars+2+2011+Dual+English.Castellano.DvdRip.XVID","amp;tr":["udp%3A%2F%2Ftracker.openbittorrent.com%3A80","udp%3A%2F%2Fopen.demonii.com%3A1337","udp%3A%2F%2Ftracker.coppersurfer.tk%3A6969","udp%3A%2F%2Fexodus.desync.com%3A6969"],"infoHash":"0e9e257a3e0b05de18c37fcd3e1b5f38ce500294","infoHashBuffer":{"type":"Buffer","data":[14,158,37,122,62,11,5,222,24,195,127,205,62,27,95,56,206,80,2,148]},"announce":[],"urlList":[]}}